<mxfile host="app.diagrams.net" modified="2023-04-14T09:23:02.144Z" agent="Mozilla/5.0 (Windows NT 10.0; Win64; x64) AppleWebKit/537.36 (KHTML, like Gecko) Chrome/111.0.0.0 Safari/537.36" etag="gDMzzSF5I_MOqQSEupVW" version="21.1.7" type="device">
  <diagram name="Page-1" id="azd4oB9Zv8i_3dDel0zO">
    <mxGraphModel dx="1434" dy="764" grid="1" gridSize="10" guides="1" tooltips="1" connect="1" arrows="1" fold="1" page="1" pageScale="1" pageWidth="827" pageHeight="1169" math="0" shadow="0">
      <root>
        <mxCell id="0" />
        <mxCell id="1" parent="0" />
        <mxCell id="qZt69hndTsCsOkKeRW-t-162" value="" style="rounded=1;whiteSpace=wrap;html=1;" parent="1" vertex="1">
          <mxGeometry x="90" y="60" width="770" height="750" as="geometry" />
        </mxCell>
        <mxCell id="qZt69hndTsCsOkKeRW-t-161" value="" style="rounded=1;whiteSpace=wrap;html=1;" parent="1" vertex="1">
          <mxGeometry x="440" y="160" width="380" height="640" as="geometry" />
        </mxCell>
        <mxCell id="qZt69hndTsCsOkKeRW-t-160" value="" style="rounded=1;whiteSpace=wrap;html=1;" parent="1" vertex="1">
          <mxGeometry x="120" y="160" width="300" height="540" as="geometry" />
        </mxCell>
        <mxCell id="qZt69hndTsCsOkKeRW-t-4" value="Produire le plan de projet&lt;br&gt;&lt;br&gt;In : /&lt;br&gt;Out : Plan de projet final" style="rounded=1;whiteSpace=wrap;html=1;" parent="1" vertex="1">
          <mxGeometry x="120" y="160" width="300" height="80" as="geometry" />
        </mxCell>
        <mxCell id="qZt69hndTsCsOkKeRW-t-99" value="Réaliser la réunion de lancement&lt;br&gt;&lt;br&gt;In : /&lt;br&gt;Out : Compte rendu de réunion de lancement" style="rounded=1;whiteSpace=wrap;html=1;" parent="1" vertex="1">
          <mxGeometry x="180" y="249" width="220" height="80" as="geometry" />
        </mxCell>
        <mxCell id="qZt69hndTsCsOkKeRW-t-101" value="Rédiger le plan de projet V1&lt;br&gt;&lt;br&gt;In : Compte rendu de réunion de lancement&lt;br&gt;Out : Plan de projet V1" style="rounded=1;whiteSpace=wrap;html=1;" parent="1" vertex="1">
          <mxGeometry x="180" y="339" width="220" height="80" as="geometry" />
        </mxCell>
        <mxCell id="qZt69hndTsCsOkKeRW-t-104" value="Rédiger la version finale du plan&lt;br&gt;&lt;br&gt;In : Plan de projet V2&lt;br&gt;Out : Plan de projet final" style="rounded=1;whiteSpace=wrap;html=1;" parent="1" vertex="1">
          <mxGeometry x="180" y="519" width="220" height="80" as="geometry" />
        </mxCell>
        <mxCell id="qZt69hndTsCsOkKeRW-t-105" value="Réaliser le développement&lt;br&gt;&lt;br&gt;In : /&lt;br&gt;Out : Artéfact final du projet" style="rounded=1;whiteSpace=wrap;html=1;" parent="1" vertex="1">
          <mxGeometry x="440" y="160" width="380" height="80" as="geometry" />
        </mxCell>
        <mxCell id="qZt69hndTsCsOkKeRW-t-106" value="Réaliser le sprint 0&lt;br&gt;&lt;br&gt;In : /&lt;br&gt;Out : Artéfact de sprint 0" style="rounded=1;whiteSpace=wrap;html=1;" parent="1" vertex="1">
          <mxGeometry x="500" y="251" width="300" height="80" as="geometry" />
        </mxCell>
        <mxCell id="qZt69hndTsCsOkKeRW-t-119" value="Réaliser le sprint 1&lt;br&gt;&lt;br&gt;In : Artéfact de sprint 0&lt;br&gt;Out : Artéfact de sprint 1" style="rounded=1;whiteSpace=wrap;html=1;" parent="1" vertex="1">
          <mxGeometry x="500" y="341" width="300" height="80" as="geometry" />
        </mxCell>
        <mxCell id="qZt69hndTsCsOkKeRW-t-126" value="Réaliser le sprint 2&lt;br&gt;&lt;br&gt;In : Artéfact de sprint 1&lt;br&gt;Out : Artéfact de sprint 2" style="rounded=1;whiteSpace=wrap;html=1;" parent="1" vertex="1">
          <mxGeometry x="500" y="431" width="300" height="80" as="geometry" />
        </mxCell>
        <mxCell id="qZt69hndTsCsOkKeRW-t-135" value="Réaliser le sprint 2&lt;br&gt;&lt;br&gt;In : Artéfact de sprint 2&lt;br&gt;Out : Artéfact de sprint 3" style="rounded=1;whiteSpace=wrap;html=1;" parent="1" vertex="1">
          <mxGeometry x="500" y="521" width="300" height="80" as="geometry" />
        </mxCell>
        <mxCell id="qZt69hndTsCsOkKeRW-t-136" value="Réaliser le sprint 4&lt;br&gt;&lt;br&gt;In : Artéfact de sprint 3&lt;br&gt;Out : Artéfact de sprint 4" style="rounded=1;whiteSpace=wrap;html=1;" parent="1" vertex="1">
          <mxGeometry x="500" y="611" width="300" height="80" as="geometry" />
        </mxCell>
        <mxCell id="qZt69hndTsCsOkKeRW-t-137" value="Réaliser le sprint 5&lt;br&gt;&lt;br&gt;In : Artéfact de sprint 4&lt;br&gt;Out : Artéfact de sprint 5" style="rounded=1;whiteSpace=wrap;html=1;" parent="1" vertex="1">
          <mxGeometry x="500" y="701" width="300" height="80" as="geometry" />
        </mxCell>
        <mxCell id="qZt69hndTsCsOkKeRW-t-139" value="Réaliser le projet&lt;br&gt;&lt;br&gt;In : /&lt;br&gt;Out : Plan de projet final, Artéfact final du projet" style="rounded=1;whiteSpace=wrap;html=1;" parent="1" vertex="1">
          <mxGeometry x="90" y="50" width="770" height="94" as="geometry" />
        </mxCell>
        <mxCell id="qZt69hndTsCsOkKeRW-t-157" value="Réaliser la soutenance&lt;br&gt;&lt;br&gt;In : Plan de projet final&lt;br&gt;Out : Soutenance" style="rounded=1;whiteSpace=wrap;html=1;" parent="1" vertex="1">
          <mxGeometry x="180" y="610" width="220" height="80" as="geometry" />
        </mxCell>
        <mxCell id="qZt69hndTsCsOkKeRW-t-163" value="Corriger le plan de projet V1&lt;br&gt;&lt;br&gt;In : Plan de projet V1&lt;br&gt;Out : Plan de projet V2" style="rounded=1;whiteSpace=wrap;html=1;" parent="1" vertex="1">
          <mxGeometry x="180" y="429" width="220" height="80" as="geometry" />
        </mxCell>
      </root>
    </mxGraphModel>
  </diagram>
</mxfile>
